<svg width="18" height="18" viewBox="0 0 18 18" fill="none" xmlns="http://www.w3.org/2000/svg">
<path fill-rule="evenodd" clip-rule="evenodd" d="M16.2853 9.63979C16.2853 10.9978 15.3259 12.0988 14.1425 12.0988C12.9591 12.0988 11.9998 10.9978 11.9998 9.63979C11.9998 8.28162 12.9591 7.18066 14.1425 7.18066C15.3259 7.18066 16.2853 8.28162 16.2853 9.63979Z" fill="black"/>
<path fill-rule="evenodd" clip-rule="evenodd" d="M6.00034 9.63979C6.00034 10.9978 5.04097 12.0988 3.85759 12.0988C2.67422 12.0988 1.71484 10.9978 1.71484 9.63979C1.71484 8.28162 2.67422 7.18066 3.85759 7.18066C5.04097 7.18066 6.00034 8.28162 6.00034 9.63979Z" fill="black"/>
<path fill-rule="evenodd" clip-rule="evenodd" d="M11.9994 6.68877C11.9994 8.59003 10.6562 10.1313 8.99948 10.1313C7.34271 10.1313 5.99951 8.59003 5.99951 6.68877C5.99951 4.78739 7.34271 3.24609 8.99948 3.24609C10.6562 3.24609 11.9994 4.78735 11.9994 6.68877Z" fill="black"/>
<path fill-rule="evenodd" clip-rule="evenodd" d="M14.5527 13.082C15.1073 14.0754 15.4288 15.2568 15.4288 16.5247V17.5083C15.4288 17.681 15.4031 17.8462 15.3554 18.0001H17.5715C17.6851 18.0001 17.7943 17.9484 17.8746 17.856C17.9551 17.764 18.0001 17.6387 18.0001 17.5083V16.5247C18.0001 14.6235 16.6571 13.082 15.0001 13.082H14.5527Z" fill="black"/>
<path fill-rule="evenodd" clip-rule="evenodd" d="M14.1418 17.9999H3.85634C3.61973 17.9999 3.42773 17.7795 3.42773 17.508V16.5244C3.42773 13.5367 5.53849 11.1147 8.14213 11.1147H9.85627C12.4598 11.1147 14.5707 13.5368 14.5707 16.5244V17.508C14.5707 17.7795 14.3787 17.9999 14.1421 17.9999H14.1418Z" fill="#2F2F2F"/>
<path fill-rule="evenodd" clip-rule="evenodd" d="M3.44738 13.082H2.99996C1.34309 13.082 0 14.6235 0 16.5247V17.5083C0 17.6387 0.0450575 17.764 0.125556 17.856C0.205767 17.9484 0.314962 18.0001 0.428608 18.0001H2.64468C2.59704 17.8462 2.57135 17.681 2.57135 17.5083V16.5247C2.57135 15.2568 2.89278 14.0754 3.44738 13.082Z" fill="#2F2F2F"/>
<path d="M12.921 3.64801H13.7953V4.65133V4.65117C13.7953 4.74898 13.8292 4.84284 13.8895 4.912C13.9497 4.98116 14.0315 5.02002 14.1167 5.02002H15.4538C15.539 5.02002 15.6208 4.98116 15.6811 4.912C15.7413 4.84284 15.7752 4.74898 15.7752 4.65117V3.64801H16.6495C16.7347 3.64801 16.8165 3.60915 16.8768 3.53999C16.937 3.47067 16.9709 3.37697 16.9709 3.27916V1.74103C16.9709 1.64321 16.937 1.54935 16.8768 1.48019C16.8165 1.41104 16.7347 1.37217 16.6495 1.37217H15.7752V0.368852C15.7752 0.271041 15.7413 0.17718 15.6811 0.108021C15.6208 0.0388623 15.539 0 15.4538 0H14.1167C13.9392 0 13.7953 0.165162 13.7953 0.368852V1.37217H12.921C12.7435 1.37217 12.5996 1.53733 12.5996 1.74103V3.27916C12.5996 3.37697 12.6335 3.47067 12.6937 3.53999C12.754 3.60915 12.8358 3.64801 12.921 3.64801ZM13.2424 2.10987H14.1167C14.202 2.10987 14.2838 2.07101 14.344 2.00185C14.4043 1.93269 14.4382 1.83883 14.4382 1.74102V0.737701H15.1324V1.74102C15.1324 1.83883 15.1662 1.93269 15.2265 2.00185C15.2868 2.07101 15.3685 2.10987 15.4538 2.10987H16.3281V2.91031H15.4538C15.2763 2.91031 15.1324 3.0753 15.1324 3.27916V4.28248L14.4382 4.28231V3.27916C14.4382 3.18135 14.4043 3.08749 14.344 3.01833C14.2838 2.94917 14.202 2.91031 14.1167 2.91031H13.2424V2.10987Z" fill="#2F2F2F"/>
</svg>
